# xmcd
#
# Track frame offsets: 
#        150
#        19711
#        35657
#        50962
#        70718
#        92438
#        109526
#        128404
#        146628
#        159550
#        167819
#        184113
#        199550
#        228257
#        244049
#        271844
#        297737
#
# Disc length: 4266 seconds
#
# Revision: 0
# Processed by: cddbd v1.5.2PL0 Copyright (c) Steve Scherf et al.
# Submitted via: ExactAudioCopy v1.3
#
DISCID=eb10a811
DTITLE=Buddy Guy and Junior Wells - Everything Gonna Be Alright
DYEAR=1999
DGENRE=Chicago Blues
TTITLE0=One Room Country Shack
TTITLE1=The Things That I Used To Do
TTITLE2=Everyday I Have The Blues
TTITLE3=Driving Wheel
TTITLE4=Help Me
TTITLE5=Come On In This House
TTITLE6=Messin' With The Kid
TTITLE7=Don't Start Me Talking
TTITLE8=Everything Gonna Be Alright
TTITLE9=Got My Mojo Working
TTITLE10=Hideaway
TTITLE11=When I Feel Better
TTITLE12=I Don1't Know
TTITLE13=Come To Me
TTITLE14=So Many Roads
TTITLE15=Blue Shadow Is Falling
TTITLE16=Hoochie Coochie Man
EXTD=
EXTT0=
EXTT1=
EXTT2=
EXTT3=
EXTT4=
EXTT5=
EXTT6=
EXTT7=
EXTT8=
EXTT9=
EXTT10=
EXTT11=
EXTT12=
EXTT13=
EXTT14=
EXTT15=
EXTT16=
PLAYORDER=
